<?xml version="1.0" encoding="UTF-8" standalone="no"?>
<svg
   xmlns:dc="http://purl.org/dc/elements/1.1/"
   xmlns:cc="http://creativecommons.org/ns#"
   xmlns:rdf="http://www.w3.org/1999/02/22-rdf-syntax-ns#"
   xmlns:svg="http://www.w3.org/2000/svg"
   xmlns="http://www.w3.org/2000/svg"
   xmlns:sodipodi="http://sodipodi.sourceforge.net/DTD/sodipodi-0.dtd"
   xmlns:inkscape="http://www.inkscape.org/namespaces/inkscape"
   width="210mm"
   height="297mm"
   viewBox="0 0 210 297"
   version="1.1"
   id="svg1127"
   inkscape:version="1.0.2-2 (e86c870879, 2021-01-15)"
   sodipodi:docname="desenho2.svg">
  <defs
     id="defs1121" />
  <sodipodi:namedview
     id="base"
     pagecolor="#ffffff"
     bordercolor="#666666"
     borderopacity="1.0"
     inkscape:pageopacity="0.0"
     inkscape:pageshadow="2"
     inkscape:zoom="0.35"
     inkscape:cx="240"
     inkscape:cy="560"
     inkscape:document-units="mm"
     inkscape:current-layer="layer1"
     inkscape:document-rotation="0"
     showgrid="false"
     inkscape:window-width="1758"
     inkscape:window-height="1030"
     inkscape:window-x="144"
     inkscape:window-y="0"
     inkscape:window-maximized="0" />
  <metadata
     id="metadata1124">
    <rdf:RDF>
      <cc:Work
         rdf:about="">
        <dc:format>image/svg+xml</dc:format>
        <dc:type
           rdf:resource="http://purl.org/dc/dcmitype/StillImage" />
        <dc:title></dc:title>
      </cc:Work>
    </rdf:RDF>
  </metadata>
  <g
     inkscape:label="Layer 1"
     inkscape:groupmode="layer"
     id="layer1">
    <ellipse
       style="fill:#78cad6;fill-opacity:1;stroke:#000000;stroke-width:0.749526;stroke-linecap:round;stroke-miterlimit:4;stroke-dasharray:none;stroke-opacity:1"
       id="path1077-5"
       cx="100.85265"
       cy="165.10052"
       rx="10.682384"
       ry="10.548748"
       inkscape:export-xdpi="96"
       inkscape:export-ydpi="96"
       inkscape:label="pezinho 2" />
    <ellipse
       style="fill:#78cad6;fill-opacity:1;stroke:#000000;stroke-width:0.749526;stroke-linecap:round;stroke-miterlimit:4;stroke-dasharray:none;stroke-opacity:1"
       id="path1077"
       cx="155.7765"
       cy="162.96239"
       rx="10.682384"
       ry="10.548748"
       inkscape:export-xdpi="96"
       inkscape:export-ydpi="96"
       inkscape:label="pezinho 1" />
    <path
       style="fill:#a0858e;fill-opacity:1;stroke:#000000;stroke-width:1.96058;stroke-linecap:butt;stroke-linejoin:miter;stroke-miterlimit:4;stroke-dasharray:none;stroke-opacity:1"
       d="m 153.94794,62.431528 c 20.42971,10.871095 8.4792,16.570917 4.43854,18.572254 l 9.8282,12.829529 c 5.27067,-1.342695 11.05921,0.213716 17.12007,-10.874547 -1.31209,-6.065368 -1.67173,-10.800947 -10.62079,-16.86166 -14.07484,-6.530971 -19.68484,-5.857755 -20.76602,-3.665576 z"
       id="path1011-6"
       sodipodi:nodetypes="cccccc"
       inkscape:export-xdpi="96"
       inkscape:export-ydpi="96"
       inkscape:label="chifre 2" />
    <path
       style="fill:#a0858e;fill-opacity:1;stroke:#000000;stroke-width:2;stroke-linecap:butt;stroke-linejoin:miter;stroke-miterlimit:4;stroke-dasharray:none;stroke-opacity:1"
       d="M 96.302525,62.492134 C 76.567206,74.202788 88.111538,80.342799 92.01486,82.498697 L 82.520702,96.319032 C 77.429186,94.872643 71.837394,96.549253 65.982541,84.604659 67.250043,78.070871 67.597454,72.96957 76.242337,66.440797 89.838771,59.405448 95.258089,60.130656 96.302525,62.492134 Z"
       id="path1011"
       sodipodi:nodetypes="cccccc"
       inkscape:export-xdpi="96"
       inkscape:export-ydpi="96"
       inkscape:label="chifre 1" />
    <path
       id="path868"
       style="fill:#83dbe5;fill-opacity:1;stroke:#000000;stroke-width:1.34247;stroke-linecap:round;stroke-miterlimit:4;stroke-dasharray:none;stroke-opacity:1"
       d="m 185.64468,126.78194 c -0.57862,29.45974 -29.69323,44.81683 -62.92903,44.43432 C 89.47982,170.83419 64.708403,154.85648 65.287193,125.39673 65.866008,95.936987 92.47168,65.982006 125.70749,66.364521 c 33.23578,0.382532 60.51598,30.957675 59.93719,60.417419 z"
       sodipodi:nodetypes="sssss"
       inkscape:export-xdpi="96"
       inkscape:export-ydpi="96"
       inkscape:label="corpinho" />
    <ellipse
       style="fill:#000000;fill-opacity:1;stroke:#000000;stroke-width:1.62946;stroke-linecap:round;stroke-miterlimit:4;stroke-dasharray:none;stroke-opacity:1"
       id="path987"
       cx="116.97742"
       cy="106.72237"
       rx="4.9099722"
       ry="5.0989599"
       inkscape:export-xdpi="96"
       inkscape:export-ydpi="96"
       inkscape:label="olhinho 2" />
    <ellipse
       style="fill:#000000;fill-opacity:1;stroke:#000000;stroke-width:1.57652;stroke-linecap:round;stroke-miterlimit:4;stroke-dasharray:none;stroke-opacity:1"
       id="path987-7"
       cx="133.60838"
       cy="106.15541"
       rx="4.9364405"
       ry="4.7474518"
       inkscape:export-xdpi="96"
       inkscape:export-ydpi="96"
       inkscape:label="olhinho 1" />
    <path
       style="fill:#31a0b1;fill-opacity:1;stroke:#000000;stroke-width:1.11151;stroke-linecap:butt;stroke-linejoin:miter;stroke-miterlimit:4;stroke-dasharray:none;stroke-opacity:1"
       d="M 96.024944,96.278955 C 103.03629,88.987503 112.83122,83.606324 121.78709,85.1251 c 2.13839,5.369741 0.67994,8.093914 0.29276,11.606045 -5.98419,0.37009 -11.19042,-0.296493 -23.566542,8.591495 -1.717681,-2.83163 -2.719163,-5.810768 -2.488364,-9.043685 z"
       id="path1053"
       sodipodi:nodetypes="ccccc"
       inkscape:export-xdpi="96"
       inkscape:export-ydpi="96"
       inkscape:label="sombrancelha 2" />
    <path
       style="fill:#31a0b1;fill-opacity:1;stroke:#000000;stroke-width:1.11566;stroke-linecap:butt;stroke-linejoin:miter;stroke-miterlimit:4;stroke-dasharray:none;stroke-opacity:1"
       d="m 155.67563,97.185261 c -7.33085,-7.025896 -17.57211,-12.211092 -26.93607,-10.74763 -2.23586,5.174175 -0.71093,7.799133 -0.30612,11.183351 6.25688,0.356611 11.70034,-0.285695 24.64044,8.278588 1.79594,-2.7285 2.84307,-5.59914 2.60175,-8.714309 z"
       id="path1053-4"
       sodipodi:nodetypes="ccccc"
       inkscape:export-xdpi="96"
       inkscape:export-ydpi="96"
       inkscape:label="sombrancelha 1" />
    <path
       style="fill:#33a4b5;fill-opacity:1;stroke:#000000;stroke-width:1;stroke-linecap:butt;stroke-linejoin:miter;stroke-miterlimit:4;stroke-dasharray:none;stroke-opacity:1"
       d="m 126.12547,111.5643 c -8.87787,3.31998 -10.50134,7.49262 -11.13389,11.47759 7.43784,4.46385 19.05379,2.32466 20.66089,0.50333 0.16609,-5.13486 -3.15317,-8.61363 -9.527,-11.98092 z"
       id="path1075"
       sodipodi:nodetypes="cccc"
       inkscape:export-xdpi="96"
       inkscape:export-ydpi="96"
       inkscape:label="narizinho" />
  </g>
</svg>
