<?xml version="1.0" encoding="UTF-8" standalone="no"?>
<svg
   xmlns:dc="http://purl.org/dc/elements/1.1/"
   xmlns:cc="http://creativecommons.org/ns#"
   xmlns:rdf="http://www.w3.org/1999/02/22-rdf-syntax-ns#"
   xmlns:svg="http://www.w3.org/2000/svg"
   xmlns="http://www.w3.org/2000/svg"
   xmlns:sodipodi="http://sodipodi.sourceforge.net/DTD/sodipodi-0.dtd"
   xmlns:inkscape="http://www.inkscape.org/namespaces/inkscape"
   width="210mm"
   height="297mm"
   viewBox="0 0 210 297"
   version="1.1"
   id="svg1780"
   inkscape:version="1.0.2-2 (e86c870879, 2021-01-15)"
   sodipodi:docname="desenho3.svg"
   inkscape:export-filename="C:\Users\Giovana Duarte\Documents\desenhos\desenho3.png"
   inkscape:export-xdpi="96"
   inkscape:export-ydpi="96">
  <defs
     id="defs1774" />
  <sodipodi:namedview
     id="base"
     pagecolor="#ffffff"
     bordercolor="#666666"
     borderopacity="1.0"
     inkscape:pageopacity="0.0"
     inkscape:pageshadow="2"
     inkscape:zoom="0.49497475"
     inkscape:cx="-102.15504"
     inkscape:cy="454.15549"
     inkscape:document-units="mm"
     inkscape:current-layer="layer1"
     inkscape:document-rotation="0"
     showgrid="false"
     inkscape:window-width="1920"
     inkscape:window-height="1001"
     inkscape:window-x="-9"
     inkscape:window-y="-9"
     inkscape:window-maximized="1" />
  <metadata
     id="metadata1777">
    <rdf:RDF>
      <cc:Work
         rdf:about="">
        <dc:format>image/svg+xml</dc:format>
        <dc:type
           rdf:resource="http://purl.org/dc/dcmitype/StillImage" />
        <dc:title></dc:title>
      </cc:Work>
    </rdf:RDF>
  </metadata>
  <g
     inkscape:label="Layer 1"
     inkscape:groupmode="layer"
     id="layer1">
    <path
       style="fill:none;stroke:#000000;stroke-width:0.971651px;stroke-linecap:butt;stroke-linejoin:miter;stroke-opacity:1"
       d="M 116.47176,68.145255 C 130.16102,49.876551 130.17878,49.803362 130.17878,49.803362"
       id="path2611" />
    <path
       style="fill:none;stroke:#000000;stroke-width:1.0758px;stroke-linecap:butt;stroke-linejoin:miter;stroke-opacity:1"
       d="m 115.66032,73.045392 4.0308,-28.26388"
       id="path2609" />
    <path
       style="fill:none;stroke:#000000;stroke-width:1.10966px;stroke-linecap:butt;stroke-linejoin:miter;stroke-opacity:1"
       d="M 118.16668,69.044656 111.87046,48.461951"
       id="path2613" />
    <path
       style="fill:none;stroke:#000000;stroke-width:0.757157px;stroke-linecap:butt;stroke-linejoin:miter;stroke-opacity:1"
       d="M 116.47176,68.145255 110.26153,53.905198"
       id="path2615" />
    <rect
       style="fill:#01a3ec;fill-opacity:1;stroke:#000000;stroke-width:1;stroke-linecap:round;stroke-opacity:1"
       id="rect2553-5"
       width="10.815173"
       height="21.223606"
       x="126.08902"
       y="163.78157"
       inkscape:transform-center-x="-5.6126601"
       inkscape:transform-center-y="8.0180858" />
    <rect
       style="fill:#01a3ec;fill-opacity:1;stroke:#000000;stroke-width:1;stroke-linecap:round;stroke-opacity:1"
       id="rect2553"
       width="10.815173"
       height="21.223606"
       x="105.04617"
       y="163.72693" />
    <rect
       style="fill:#ffff00;fill-opacity:1;stroke:#000000;stroke-width:1;stroke-linecap:round"
       id="rect2402"
       width="52.384827"
       height="115.19316"
       x="93.17585"
       y="64.434883"
       ry="26.192413" />
    <ellipse
       style="fill:#000000;fill-opacity:1;stroke:#000000;stroke-width:1.0422;stroke-linecap:round"
       id="path2366"
       cx="120.27129"
       cy="99.424255"
       rx="16.015072"
       ry="16.549612" />
    <rect
       style="fill:#000000;fill-opacity:1;stroke:#000000;stroke-width:0.948597;stroke-linecap:round"
       id="rect2370"
       width="23.568863"
       height="4.8108511"
       x="93.495186"
       y="95.682487" />
    <rect
       style="fill:#000000;fill-opacity:1;stroke:#000000;stroke-width:0.928589;stroke-linecap:round"
       id="rect2370-5"
       width="22.254782"
       height="4.8822622"
       x="122.88698"
       y="95.268806" />
    <ellipse
       style="fill:#ffffff;fill-opacity:1;stroke:#000000;stroke-width:1;stroke-linecap:round"
       id="path2392"
       cx="120.38541"
       cy="99.691216"
       rx="12.851191"
       ry="12.945683" />
    <ellipse
       style="fill:#000000;fill-opacity:1;stroke:#000000;stroke-width:1;stroke-linecap:round"
       id="path2394"
       cx="120.70911"
       cy="99.246002"
       rx="4.401011"
       ry="4.3194704" />
    <path
       id="rect2473"
       style="fill:#01a3ec;fill-opacity:1;stroke:#000000;stroke-width:0.894348;stroke-linecap:round"
       d="m 98.836899,133.58194 h 39.661541 l -0.80181,38.32519 c -11.02514,9.74089 -26.65143,10.00502 -37.99585,-2.03302 z"
       sodipodi:nodetypes="ccccc" />
    <path
       id="rect2476"
       style="fill:#01a3ec;fill-opacity:1;stroke:#01a3ec;stroke-width:0.629556;stroke-linecap:round;stroke-opacity:1"
       d="m 93.791634,147.93823 h 8.655796 v 18.2775 c -1.267,1.79817 -0.90522,8.30169 -6.387939,-2.07887 -2.706389,-5.39954 -2.518926,-10.79909 -2.267857,-16.19863 z"
       sodipodi:nodetypes="ccccc" />
    <path
       id="rect2476-7"
       style="fill:#01a3ec;fill-opacity:1;stroke:#01a3ec;stroke-width:0.612695;stroke-linecap:round;stroke-opacity:1"
       d="m 144.6188,148.69587 -8.19553,-0.21505 -0.47942,18.27122 c 0.13474,0.9883 -4.04009,14.03802 6.10279,-1.91946 2.70411,-5.33043 2.78922,-10.84936 2.57216,-16.13671 z"
       sodipodi:nodetypes="ccccc" />
    <rect
       style="fill:#000000;fill-opacity:1;stroke:#000000;stroke-width:0.117011;stroke-linecap:round;stroke-opacity:1"
       id="rect2509"
       width="6.4028668"
       height="0.62452406"
       x="93.140518"
       y="147.38306"
       rx="0" />
    <rect
       style="fill:#000000;fill-opacity:1;stroke:#000000;stroke-width:0.123764;stroke-linecap:round;stroke-opacity:1"
       id="rect2509-8"
       width="7.1976819"
       height="0.62152922"
       x="137.40034"
       y="148.07346"
       rx="0"
       transform="matrix(1,-8.2166167e-7,0.00260589,0.9999966,0,0)" />
    <path
       id="rect2410-6-3"
       style="fill:#01a3ec;fill-opacity:1;stroke:#000000;stroke-width:0.423375;stroke-linecap:round"
       d="m 93.542426,124.17106 -0.101102,-3.84614 14.425066,14.90427 -2.41143,2.24719 z"
       sodipodi:nodetypes="ccccc" />
    <path
       id="rect2410-6"
       style="fill:#01a3ec;fill-opacity:1;stroke:#000000;stroke-width:0.403622;stroke-linecap:round"
       d="m 145.59439,123.98427 -0.0985,-3.13471 -14.72593,14.10151 2.31644,2.12615 z"
       sodipodi:nodetypes="ccccc" />
    <ellipse
       style="fill:#000000;fill-opacity:1;stroke:#000000;stroke-width:0.63632;stroke-linecap:round;stroke-opacity:1"
       id="path2531"
       cx="105.49528"
       cy="135.11092"
       rx="0.65935373"
       ry="0.72652525" />
    <ellipse
       style="fill:#000000;fill-opacity:1;stroke:#000000;stroke-width:0.63632;stroke-linecap:round;stroke-opacity:1"
       id="path2531-5"
       cx="133.15034"
       cy="134.82077"
       rx="0.65935373"
       ry="0.72652525" />
    <path
       id="path2586"
       style="fill:#000000;fill-opacity:1;stroke:#000000;stroke-width:1;stroke-linecap:round;stroke-opacity:1"
       d="m 114.89558,183.42133 c 3.66154,1.47787 -2.29985,6.27953 -6.41447,8.88672 -5.78786,3.66741 -11.444607,3.76647 -9.888977,-1.93771 1.119741,-4.10586 6.111187,-10.07508 13.898017,-7.81763 2.41657,0.70058 0.2123,-0.0166 2.40543,0.86862 z"
       sodipodi:nodetypes="sssss" />
    <path
       id="path2586-2"
       style="fill:#000000;fill-opacity:1;stroke:#000000;stroke-width:0.997111;stroke-linecap:round;stroke-opacity:1"
       d="m 126.64222,183.41405 c -3.64041,1.47787 2.28656,6.27953 6.37743,8.88672 5.75443,3.66741 11.37851,3.76647 9.83187,-1.93771 -1.11329,-4.10586 -6.0759,-10.07508 -13.81776,-7.81763 -2.40262,0.70058 -0.21108,-0.0166 -2.39154,0.86862 z"
       sodipodi:nodetypes="sssss" />
    <path
       style="fill:#fef009;fill-opacity:1;stroke:#000000;stroke-width:0.474301px;stroke-linecap:butt;stroke-linejoin:miter;stroke-opacity:1"
       d="m 93.053425,147.31534 0.163446,-5.99226 c -1.150336,0.50519 -4.137096,-2.80224 -0.217901,-4.87286 l 0.05446,-8.42869 c -2.401922,3.32103 -15.498788,11.87139 0,19.29381 z"
       id="path2624"
       sodipodi:nodetypes="ccccc" />
    <path
       style="fill:#fef009;fill-opacity:1;stroke:#000000;stroke-width:0.472569px;stroke-linecap:butt;stroke-linejoin:miter;stroke-opacity:1"
       d="m 144.98389,148.07283 -0.16224,-5.99226 c 1.14194,0.50519 4.10692,-2.80224 0.21631,-4.87286 l -0.0541,-8.42869 c 2.38441,3.32103 15.38578,11.87139 0,19.29381 z"
       id="path2624-0"
       sodipodi:nodetypes="ccccc" />
    <path
       id="rect2646"
       style="fill:#01a3ec;fill-opacity:1;stroke:#000000;stroke-width:0.502913;stroke-linecap:round;stroke-opacity:1"
       d="M 118.07209,140.69925 123.7873,140.55 c 5.05242,-0.13194 6.06233,2.52534 2.75942,10.59339 -1.6762,4.0945 -3.01606,4.55095 -3.57439,4.52563 -4.56446,-0.20693 -2.1398,-0.13045 -4.36025,-0.10579 -3.86767,0.043 -6.37199,-3.17561 -6.91827,-6.95713 -1.16708,-8.07893 -2.28954,-7.68049 6.37828,-7.90685 z"
       sodipodi:nodetypes="sssssss" />
    <path
       style="fill:none;stroke:#000000;stroke-width:0.264583px;stroke-linecap:butt;stroke-linejoin:miter;stroke-opacity:1"
       d="m 105.21298,126.04753 c 7.95992,-4.75584 15.22236,-11.07673 30.2381,0 -11.07189,-9.13122 -20.94284,-7.21374 -30.2381,0 z"
       id="path2649"
       sodipodi:nodetypes="ccc" />
  </g>
</svg>
